#!OML:ASF F:\VICON\USERDATA\INSTALL\rory3\rory3.ASF
:FULLY-SPECIFIED
:DEGREES
29
root -1.0080890954698012 17.466555674674794 -2.4480149708461347 6.194315852171486 3.7436387740329753 4.9619946953020655
lfemur -5.439443967589575 0.3104228398352258 -29.4736435659569
ltibia 37.755646416208165
lfoot -12.322909772078283 -2.6018992012537563
ltoes -26.186010352800714
rfemur -47.33705321060759 -6.155131377715317 20.276543516304326
rtibia 103.48204562058669
rfoot 7.6985620945009074 -7.478520513532473
rtoes 7.522101311788469
lowerback 15.153393983065914 -0.4756759126183975 -4.76731193078935
upperback -0.6292260956447953 -1.4516145133306737 0.20670543442901135
thorax -7.990900856678277 -0.5197498467955843 2.2278128934532866
lowerneck -20.01678134703216 -3.9411601211974325 -1.783052040732993
upperneck 12.815522830979964 -5.780009898150424 5.024615734952018
head 7.506761276668825 -2.2858766387181637 1.1892685356886956
lclavicle 1.0814690945698716e-16 1.6659573784978969e-15
lhumerus -37.80572447590551 -11.392275223354531 93.10332449417244
lradius 120.74659753095398
lwrist 37.85063590391279
lhand -30.12557162177395 8.316878541709452
lfingers 7.125019999999998
lthumb -3.315631399817357 37.941858663579445
rclavicle 1.1147097036879998e-16 1.6665445399862742e-15
rhumerus -57.61646688994612 9.553073302819763 -97.90366986383296
rradius 99.12242237634935
rwrist -21.866009541516387
rhand -17.928300507405705 39.9843711798167
rfingers 7.125019999999998
rthumb 8.10922954184894 10.90127154938192
30
root -0.9655570771575108 17.720247295970008 -1.3322818797974367 5.810578517446812 3.163509240709236 4.606850255279357
lfemur -1.5305879565524165 -0.23154855808116936 -29.489739223948767
ltibia 34.09039717670485
lfoot -4.2245401344792715 -6.664336949844956
ltoes -28.641920334621858
rfemur -47.94870395121097 -5.353565038475474 20.918930435685557
rtibia 95.10933815580643
rfoot 7.9143988856877945 -7.3242198653204955
rtoes 6.549655195071653
lowerback 15.296124364278757 -0.8875133742971598 -4.343682624459685
upperback -0.7571199366588574 -1.847235104258607 0.5633070571165526
thorax -8.071416817080728 -0.6951114984982891 2.3924510322055244
lowerneck -20.313062037201888 -4.349365803948227 -2.579615531599404
upperneck 13.463009641883783 -6.046378259550281 5.743120918246827
head 7.742993484499241 -2.410185800149685 1.3848070487700794
lclavicle 1.0693848521002405e-16 1.6651283242702244e-15
lhumerus -37.35489066620379 -10.736933401994241 92.237325228426
lradius 125.03818378556836
lwrist 38.46957414195029
lhand -28.41915265301771 2.1771304294175966
lfingers 7.125019999999998
lthumb -2.2569689791895997 32.116132256196146
rclavicle 1.0869906636850017e-16 1.6656195431218787e-15
rhumerus -59.63795849999405 9.058350607778879 -97.37769699344653
rradius 101.83660007427872
rwrist -22.11451759288663
rhand -17.560026310554157 40.00220972447752
rfingers 7.125019999999998
rthumb 8.149077172987974 11.10318647580562
31
root -0.9362569305508659 17.91735253151989 -0.24261176282147545 5.292345105588976 1.60696516412079 4.362952716136975
lfemur 1.9834091823222835 0.23632333947491269 -29.575875324120076
ltibia 31.056530358428006
lfoot 6.629914451899175 -10.588243883065719
ltoes -29.661953130253988
rfemur -47.03072324385935 -3.253251935552128 21.502074751607385
rtibia 86.06580248877052
rfoot 7.073848918668534 -7.025258055467981
rtoes 4.563315787832009
lowerback 15.573545056314392 -0.8497249758208264 -4.3376559142510365
upperback -0.8436446717174243 -1.7852670621983457 0.7561527451059556
thorax -8.308546619737111 -0.7190306370225299 2.557587550719921
lowerneck -19.03933230611096 -3.4313402813986844 -2.330312305933002
upperneck 13.463031808007585 -4.711670364543216 4.912258815321391
head 7.685917994201924 -1.8638653882959013 1.2939502775629401
lclavicle 1.0738791779325625e-16 1.6653495548606142e-15
lhumerus -36.9716262096034 -10.416816251383981 91.2239061789738
lradius 127.63778696679256
lwrist 38.118095060681185
lhand -27.294531330318037 1.4850202316092473
lfingers 7.125019999999998
lthumb -1.5359843012060908 29.858641278319737
rclavicle 1.1065559379019233e-16 1.6663209492320842e-15
rhumerus -61.25504730220208 8.187387205145685 -96.62601758370165
rradius 104.091834129881
rwrist -21.710104743015123
rhand -17.296762246118565 40.36333538203709
rfingers 7.125019999999998
rthumb 8.17967707033163 11.26132730104544
32
root -0.8957753601370485 18.127081351222035 0.39488452495157755 5.136166479896314 0.2962857246373388 3.428799064438606
lfemur 4.616568274063315 0.23564994521508353 -28.806659368383745
ltibia 28.288664970119733
lfoot 16.224604633877767 -14.879462836349951
ltoes -29.578339755791387
rfemur -45.8874937458063 -1.4302016805452453 22.728636867548026
rtibia 75.6998638134534
rfoot 9.337245222690868 -6.596481143244654
rtoes 1.8268154522076163
lowerback 15.3244412240581 -0.8927897256515916 -3.535204518350461
upperback -0.9316907165933552 -1.72388820516736 1.0770111928325887
thorax -8.314775653487231 -0.7228570443641522 2.524843511691248
lowerneck -18.3883120837267 -3.1474402603815093 -2.1973495331299953
upperneck 13.766800587562738 -4.23808560752764 4.182954127598835
head 7.690773419419685 -1.7076563709075896 1.0913889547764346
lclavicle 1.0530579735671885e-16 1.6640171959155384e-15
lhumerus -37.07802175726611 -9.795608696799638 89.92563815874396
lradius 128.3319957025221
lwrist 37.01295402269136
lhand -24.822314677633297 3.4260886233910326
lfingers 7.125019999999998
lthumb 0.581914686538461 32.40705140957532
rclavicle 1.1415330202537408e-16 1.668525605903953e-15
rhumerus -62.44592229016022 7.3046462263430945 -95.87523379336052
rradius 104.86490902080877
rwrist -21.02364734709279
rhand -17.210620147072696 39.91451950477958
rfingers 7.125019999999998
rthumb 8.120560538563083 10.920777748013327
33
root -0.8449273236979823 18.289304078588852 1.2082249356452275 5.181141664598018 -1.0110919484399572 3.0956424889924428
lfemur 6.603171004691333 -0.25214760177961626 -28.88281111510711
ltibia 26.40608876406992
lfoot 23.302326264387336 -16.03444621248672
ltoes -25.40741941885069
rfemur -44.5772281652785 0.6649013035955234 23.074901813131977
rtibia 65.09776258205288
rfoot 11.81409078841936 -6.180225800369458
rtoes -0.548062706512606
lowerback 14.76031131840198 -0.8768300726321353 -3.2367678494503793
upperback -0.5983206998352967 -1.5697748674666978 1.2968052192754755
thorax -7.686296608387622 -0.6635906755986203 2.492182223739664
lowerneck -18.890652146432128 -3.128941593712957 -2.2326767234378635
upperneck 14.560515984239517 -4.10965551344954 3.8104634993121578
head 7.956731599338199 -1.670119084839734 1.002676566971846
lclavicle 1.010121599066268e-16 1.6611519282157797e-15
lhumerus -37.07275877860583 -9.395826140120013 88.65469252322063
lradius 127.52588291875854
lwrist 35.75203506419803
lhand -23.893665697861902 1.7739339277764348
lfingers 7.125019999999998
lthumb 1.7011362234597867 29.563636970069727
rclavicle 1.133203643572672e-16 1.6684264581009848e-15
rhumerus -63.42976769238352 6.294547685974381 -95.18208601587088
rradius 105.17177431810417
rwrist -20.602171375393
rhand -17.5659724637371 39.617539258555965
rfingers 7.125019999999998
rthumb 8.036049581739867 10.79706130281715
34
root -0.7917887297490093 18.44864267683837 2.4311435597078503 5.369730964218961 -1.1714389178414466 2.973122270431454
lfemur 7.575809216675882 -1.694186291742021 -29.059100988053476
ltibia 26.8662312516185
lfoot 27.6723473726104 -17.79097422597383
ltoes -19.795936411133628
rfemur -42.39916839288066 1.2482137738335377 23.455814554983817
rtibia 54.81371032915255
rfoot 14.724323863711746 -5.3192802828576955
rtoes 0.7075634902034951
lowerback 14.344058494547903 -1.1548259510326253 -2.7771564758608185
upperback -1.2339045014505203 -1.9182018187168177 1.4304701514345983
thorax -8.201859860526174 -0.8085372434898304 2.401474474203386
lowerneck -17.766592541378728 -2.9529611293259266 -2.310772781079225
upperneck 14.749558455486351 -3.7363945994426975 3.5231842037870535
head 7.915316458669018 -1.5360488792709945 0.9673882407570626
lclavicle 1.1189715429886686e-16 1.668588892805713e-15
lhumerus -38.1422463452062 -9.45985292146752 88.01187551213572
lradius 126.10827789199007
lwrist 34.3528626170217
lhand -26.192925271731678 1.9896342421340854
lfingers 7.125019999999998
lthumb 0.13012145521979956 30.959215389806964
rclavicle 1.1519535175828322e-16 1.6690123565667488e-15
rhumerus -65.2744770314374 5.177123565512319 -94.50816147012681
rradius 106.30765879108897
rwrist -20.117852113468892
rhand -17.799303673773824 39.49501108818964
rfingers 7.125019999999998
rthumb 7.909909704969832 11.037112704103869
